<!-- Generator: Adobe Illustrator 24.3.0, SVG Export Plug-In  --><svg version="1.1" xmlns="http://www.w3.org/2000/svg" xmlns:xlink="http://www.w3.org/1999/xlink" x="0px" y="0px" width="30.05px" height="30.05px" viewBox="0 0 30.05 30.05" style="overflow:visible;enable-background:new 0 0 30.05 30.05;" xml:space="preserve"><style type="text/css">.st0{fill:#030104;}</style><defs></defs><g><path class="st0" d="M25.65,4.4c-5.87-5.86-15.38-5.86-21.25,0c-5.87,5.87-5.87,15.38,0,21.25c5.87,5.86,15.38,5.86,21.25,0 C31.52,19.78,31.52,10.27,25.65,4.4z M6.18,23.88c-4.89-4.89-4.89-12.81,0-17.7c4.88-4.89,12.81-4.89,17.7,0 c4.89,4.89,4.89,12.81,0,17.7C18.99,28.76,11.07,28.76,6.18,23.88z"/><path class="st0" d="M15.11,7.99l4.49,5.42c0,0,0.68,0.64-0.06,0.64c-0.74,0-2.53,0-2.53,0s0,0.44,0,1.1c0,1.91,0,5.38,0,6.79 		c0,0,0.1,0.38-0.48,0.38c-0.58,0-3.14,0-3.56,0c-0.42,0-0.41-0.32-0.41-0.32c0-1.37,0-4.96,0-6.8c0-0.6,0-1.15,0-1.15 		s-1.44,0-2.33,0c-0.9,0-0.13-0.64-0.13-0.64s3.72-4.94,4.25-5.47C14.74,7.56,15.11,7.99,15.11,7.99z"/></g></svg>